<svg version="1.1" id="Layer_1" xmlns="http://www.w3.org/2000/svg" xmlns:xlink="http://www.w3.org/1999/xlink" x="0px" y="0px"
	 width="100%" viewBox="0 0 512 512" enable-background="new 0 0 512 512" xml:space="preserve">
<path fill="#000000" opacity="1.000000" stroke="none" 
	d="
M281.000000,1.000001 
	C358.263947,1.000000 435.527924,1.000000 513.000000,1.000000 
	C513.000000,86.020782 513.000000,171.041733 512.531372,256.531342 
	C490.461243,257.000000 468.859802,257.000000 447.381683,257.000000 
	C447.172943,257.833740 447.055908,258.136017 447.025452,258.446808 
	C446.083618,268.065613 448.452911,277.752960 445.204865,287.427948 
	C442.823364,294.521759 442.395386,302.260315 440.934601,309.679596 
	C440.321198,312.794861 439.437378,315.878693 438.403870,318.883026 
	C437.459686,321.627686 436.097229,324.225525 435.009277,326.924438 
	C433.402222,330.911102 432.233948,335.121216 430.226196,338.888397 
	C427.498260,344.006836 424.096558,348.762054 421.088623,353.736450 
	C416.846008,360.752563 413.113098,368.120026 408.386505,374.787323 
	C404.294189,380.559998 399.219696,385.657562 394.393890,390.882263 
	C390.629333,394.957977 386.854095,399.104156 382.585083,402.612366 
	C377.704193,406.623352 372.300995,410.005890 367.070282,413.581879 
	C362.395508,416.777863 357.797760,420.130066 352.891357,422.932434 
	C347.075592,426.254242 341.019135,429.173309 334.967041,432.057159 
	C329.789948,434.524017 324.571136,436.968140 319.189911,438.924988 
	C312.887054,441.217010 306.467560,443.298706 299.953552,444.869904 
	C292.770172,446.602570 285.409119,448.850006 278.148254,448.771118 
	C257.835327,448.550598 237.271744,451.541962 217.300812,445.058685 
	C212.137207,443.382385 206.724930,442.487762 201.500565,440.978882 
	C195.046951,439.115021 188.485291,437.426849 182.313034,434.843811 
	C176.296753,432.325989 170.832047,428.520203 164.905701,425.749237 
	C158.848846,422.917267 153.797409,418.388245 148.094788,415.415344 
	C139.218719,410.788116 132.800507,403.483704 125.123367,397.640228 
	C120.045952,393.775513 116.951263,387.379150 112.049438,383.192810 
	C105.247711,377.383850 101.375626,369.481079 95.762878,362.864532 
	C93.715378,360.450897 92.482742,357.323090 91.001320,354.457520 
	C88.706329,350.018188 86.420647,345.569244 84.307396,341.042053 
	C81.771858,335.610199 79.370827,330.113586 77.013870,324.601257 
	C75.960022,322.136566 75.144447,319.569244 74.240700,317.041351 
	C73.149483,313.989075 71.826393,310.990784 71.064377,307.857117 
	C70.114578,303.951172 69.706367,299.916962 68.936150,295.963104 
	C67.678619,289.507629 65.343689,283.095917 65.187164,276.624023 
	C64.760391,258.978790 64.092583,241.265854 67.018906,223.718781 
	C67.573616,220.392563 68.310036,217.092804 69.072083,213.806213 
	C69.722572,211.000732 70.331139,208.159271 71.312149,205.462463 
	C73.066437,200.639893 75.164551,195.943436 76.976814,191.140640 
	C79.234863,185.156479 80.733963,178.795120 83.679527,173.183929 
	C87.440239,166.019928 92.157600,159.331940 96.757919,152.641800 
	C101.988159,145.035568 106.939575,137.100143 113.131874,130.332260 
	C119.110443,123.797974 125.021523,117.163170 132.687103,112.004036 
	C138.917770,107.810623 144.314560,102.164658 150.925903,98.182365 
	C156.785950,94.652626 162.121811,90.118004 168.246521,87.195053 
	C176.623138,83.197426 185.461334,80.120186 194.224899,76.993851 
	C202.353210,74.094131 210.494888,70.913773 218.904922,69.212967 
	C227.013062,67.573212 235.483032,67.778557 243.771393,66.947433 
	C247.274780,66.596115 250.720215,65.146523 254.191986,65.146530 
	C257.663788,65.146530 261.109100,66.632645 264.612457,66.942329 
	C274.068939,67.778275 283.561310,68.211365 293.015167,69.071480 
	C296.180298,69.359451 299.334930,70.256088 302.383759,71.223175 
	C308.024384,73.012352 313.571716,75.093430 319.180176,76.986992 
	C323.732330,78.523926 328.890717,79.090652 332.764771,81.634277 
	C340.213470,86.524933 349.476074,88.149612 355.855255,94.881523 
	C357.420624,96.533424 359.493805,98.037933 361.622131,98.763306 
	C369.753418,101.534554 374.853973,108.452034 381.601074,113.098701 
	C385.054382,115.476974 387.334045,119.559372 390.255280,123.002548 
	C374.343445,138.909088 357.692719,155.554321 340.241272,173.000000 
	C342.881165,173.000000 344.614349,173.000000 346.347534,173.000000 
	C384.845551,173.000000 423.343567,173.013367 461.841583,172.986755 
	C468.210327,172.982361 474.318024,173.352982 480.319580,169.282669 
	C485.807495,165.560715 492.988922,157.295883 492.991394,150.984329 
	C493.007935,108.819847 493.003326,66.655357 492.982178,24.490883 
	C492.981598,23.334616 492.717743,22.178478 492.527161,20.616552 
	C474.048889,39.052921 456.074066,56.986992 438.307404,74.713348 
	C430.482483,67.733139 422.764008,60.768986 414.946960,53.917278 
	C412.190399,51.501106 409.384247,49.042816 406.264923,47.160046 
	C399.996063,43.376270 393.473785,40.014847 387.098907,36.403545 
	C381.661865,33.323517 376.357544,30.002232 370.856689,27.043943 
	C366.879852,24.905241 362.712830,23.104570 358.566101,21.301472 
	C353.556610,19.123232 348.591705,16.743650 343.400391,15.108870 
	C337.759827,13.332603 331.828094,12.502533 326.120728,10.910690 
	C319.810028,9.150573 313.721649,6.429241 307.331024,5.164817 
	C300.494568,3.812193 293.420258,3.651417 286.445587,3.016685 
	C285.122955,2.896320 283.731812,3.198163 282.468597,2.898784 
	C281.863068,2.755270 281.482483,1.662733 281.000000,1.000001 
z"/>
<path fill="#FFFFFF" opacity="1.000000" stroke="none" 
	d="
M280.531342,1.000001 
	C281.482483,1.662733 281.863068,2.755270 282.468597,2.898784 
	C283.731812,3.198163 285.122955,2.896320 286.445587,3.016685 
	C293.420258,3.651417 300.494568,3.812193 307.331024,5.164817 
	C313.721649,6.429241 319.810028,9.150573 326.120728,10.910690 
	C331.828094,12.502533 337.759827,13.332603 343.400391,15.108870 
	C348.591705,16.743650 353.556610,19.123232 358.566101,21.301472 
	C362.712830,23.104570 366.879852,24.905241 370.856689,27.043943 
	C376.357544,30.002232 381.661865,33.323517 387.098907,36.403545 
	C393.473785,40.014847 399.996063,43.376270 406.264923,47.160046 
	C409.384247,49.042816 412.190399,51.501106 414.946960,53.917278 
	C422.764008,60.768986 430.482483,67.733139 438.307404,74.713348 
	C456.074066,56.986992 474.048889,39.052921 492.527161,20.616552 
	C492.717743,22.178478 492.981598,23.334616 492.982178,24.490883 
	C493.003326,66.655357 493.007935,108.819847 492.991394,150.984329 
	C492.988922,157.295883 485.807495,165.560715 480.319580,169.282669 
	C474.318024,173.352982 468.210327,172.982361 461.841583,172.986755 
	C423.343567,173.013367 384.845551,173.000000 346.347534,173.000000 
	C344.614349,173.000000 342.881165,173.000000 340.241272,173.000000 
	C357.692719,155.554321 374.343445,138.909088 390.255280,123.002548 
	C387.334045,119.559372 385.054382,115.476974 381.601074,113.098701 
	C374.853973,108.452034 369.753418,101.534554 361.622131,98.763306 
	C359.493805,98.037933 357.420624,96.533424 355.855255,94.881523 
	C349.476074,88.149612 340.213470,86.524933 332.764771,81.634277 
	C328.890717,79.090652 323.732330,78.523926 319.180176,76.986992 
	C313.571716,75.093430 308.024384,73.012352 302.383759,71.223175 
	C299.334930,70.256088 296.180298,69.359451 293.015167,69.071480 
	C283.561310,68.211365 274.068939,67.778275 264.612457,66.942329 
	C261.109100,66.632645 257.663788,65.146530 254.191986,65.146530 
	C250.720215,65.146523 247.274780,66.596115 243.771393,66.947433 
	C235.483032,67.778557 227.013062,67.573212 218.904922,69.212967 
	C210.494888,70.913773 202.353210,74.094131 194.224899,76.993851 
	C185.461334,80.120186 176.623138,83.197426 168.246521,87.195053 
	C162.121811,90.118004 156.785950,94.652626 150.925903,98.182365 
	C144.314560,102.164658 138.917770,107.810623 132.687103,112.004036 
	C125.021523,117.163170 119.110443,123.797974 113.131874,130.332260 
	C106.939575,137.100143 101.988159,145.035568 96.757919,152.641800 
	C92.157600,159.331940 87.440239,166.019928 83.679527,173.183929 
	C80.733963,178.795120 79.234863,185.156479 76.976814,191.140640 
	C75.164551,195.943436 73.066437,200.639893 71.312149,205.462463 
	C70.331139,208.159271 69.722572,211.000732 69.072083,213.806213 
	C68.310036,217.092804 67.573616,220.392563 67.018906,223.718781 
	C64.092583,241.265854 64.760391,258.978790 65.187164,276.624023 
	C65.343689,283.095917 67.678619,289.507629 68.936150,295.963104 
	C69.706367,299.916962 70.114578,303.951172 71.064377,307.857117 
	C71.826393,310.990784 73.149483,313.989075 74.240700,317.041351 
	C75.144447,319.569244 75.960022,322.136566 77.013870,324.601257 
	C79.370827,330.113586 81.771858,335.610199 84.307396,341.042053 
	C86.420647,345.569244 88.706329,350.018188 91.001320,354.457520 
	C92.482742,357.323090 93.715378,360.450897 95.762878,362.864532 
	C101.375626,369.481079 105.247711,377.383850 112.049438,383.192810 
	C116.951263,387.379150 120.045952,393.775513 125.123367,397.640228 
	C132.800507,403.483704 139.218719,410.788116 148.094788,415.415344 
	C153.797409,418.388245 158.848846,422.917267 164.905701,425.749237 
	C170.832047,428.520203 176.296753,432.325989 182.313034,434.843811 
	C188.485291,437.426849 195.046951,439.115021 201.500565,440.978882 
	C206.724930,442.487762 212.137207,443.382385 217.300812,445.058685 
	C237.271744,451.541962 257.835327,448.550598 278.148254,448.771118 
	C285.409119,448.850006 292.770172,446.602570 299.953552,444.869904 
	C306.467560,443.298706 312.887054,441.217010 319.189911,438.924988 
	C324.571136,436.968140 329.789948,434.524017 334.967041,432.057159 
	C341.019135,429.173309 347.075592,426.254242 352.891357,422.932434 
	C357.797760,420.130066 362.395508,416.777863 367.070282,413.581879 
	C372.300995,410.005890 377.704193,406.623352 382.585083,402.612366 
	C386.854095,399.104156 390.629333,394.957977 394.393890,390.882263 
	C399.219696,385.657562 404.294189,380.559998 408.386505,374.787323 
	C413.113098,368.120026 416.846008,360.752563 421.088623,353.736450 
	C424.096558,348.762054 427.498260,344.006836 430.226196,338.888397 
	C432.233948,335.121216 433.402222,330.911102 435.009277,326.924438 
	C436.097229,324.225525 437.459686,321.627686 438.403870,318.883026 
	C439.437378,315.878693 440.321198,312.794861 440.934601,309.679596 
	C442.395386,302.260315 442.823364,294.521759 445.204865,287.427948 
	C448.452911,277.752960 446.083618,268.065613 447.025452,258.446808 
	C447.055908,258.136017 447.172943,257.833740 447.381683,257.000000 
	C468.859802,257.000000 490.461243,257.000000 512.531372,257.000000 
	C513.000000,267.354218 513.000000,277.708466 512.559692,288.540192 
	C511.777435,289.290771 511.132568,289.569427 511.137512,289.836029 
	C511.298615,298.520935 509.498596,306.816040 507.163177,315.167480 
	C505.227051,322.091125 504.279236,329.197510 501.213989,335.908508 
	C498.446503,341.967651 497.179047,348.695435 494.942413,355.019562 
	C493.488251,359.131256 491.624420,363.117920 489.690399,367.035339 
	C486.902313,372.682678 484.070221,378.324158 480.917572,383.771729 
	C476.763275,390.950165 472.426666,398.034058 467.891022,404.977325 
	C464.358643,410.384705 460.667969,415.733856 456.567627,420.713623 
	C451.390717,427.000916 445.878387,433.034332 440.206207,438.881866 
	C437.480743,441.691620 433.926758,443.677094 430.974426,446.291565 
	C424.198547,452.291840 417.567261,458.455200 410.851440,464.523773 
	C410.526978,464.816956 409.897614,464.746582 409.507141,464.996704 
	C404.620331,468.127258 399.801971,471.367645 394.864807,474.415802 
	C389.016388,478.026489 383.182251,481.687714 377.131683,484.935364 
	C371.737854,487.830536 366.053650,490.183685 360.505066,492.791962 
	C357.580414,494.166748 354.756287,495.804138 351.737885,496.920502 
	C345.894989,499.081512 340.002289,501.146454 334.028198,502.904449 
	C326.516235,505.115051 318.974854,507.342590 311.308807,508.875946 
	C305.125336,510.112732 298.727020,510.246399 292.450775,511.072845 
	C291.236969,511.232697 290.147064,512.333374 289.000000,513.000000 
	C267.979095,513.000000 246.958206,513.000000 225.460022,512.561401 
	C219.914108,511.081970 214.869522,509.897919 209.770050,509.040466 
	C204.667633,508.182556 199.491211,507.768036 194.384415,506.931976 
	C191.391968,506.442078 188.394974,505.728485 185.536850,504.725555 
	C180.551773,502.976318 175.671219,500.928833 170.748978,499.000946 
	C166.114136,497.185699 161.410416,495.524597 156.866364,493.504639 
	C150.820663,490.817017 144.894241,487.860046 138.927963,484.995087 
	C134.297256,482.771423 129.434555,480.903931 125.127350,478.166351 
	C119.969673,474.888214 115.343414,470.784454 110.396179,467.162354 
	C102.958397,461.716827 94.672569,457.172974 88.122147,450.826721 
	C75.324333,438.427795 61.738174,426.658936 52.250793,411.141754 
	C47.935974,404.084564 42.298534,397.845795 37.809402,390.882263 
	C34.410557,385.609955 31.828196,379.804108 28.979366,374.186554 
	C26.273252,368.850372 23.569521,363.506500 21.094313,358.061676 
	C18.901714,353.238495 16.672869,348.381409 15.102239,343.339264 
	C13.344765,337.697327 12.501161,331.776886 10.909635,326.075409 
	C9.150006,319.771698 6.427854,313.690735 5.163701,307.307068 
	C3.811190,300.477264 3.748138,293.398346 2.925776,286.451385 
	C2.782600,285.241882 1.666652,284.147522 0.999999,283.000000 
	C1.000000,266.645782 1.000000,250.291550 1.441162,233.459686 
	C2.253358,232.378799 2.896097,231.800522 2.954183,231.168518 
	C3.685682,223.209488 4.329002,215.242401 5.008556,207.278534 
	C5.063653,206.632812 5.151926,205.975327 5.338927,205.357864 
	C6.541533,201.386948 7.879120,197.453720 8.967567,193.452408 
	C9.850351,190.207138 10.218244,186.812515 11.219908,183.610962 
	C12.984783,177.969986 15.075534,172.431473 16.996147,166.838486 
	C17.877090,164.273102 18.366722,161.523270 19.573740,159.129318 
	C23.234360,151.868973 27.200624,144.763504 30.967979,137.555969 
	C34.500717,130.797272 37.553352,123.754944 41.510159,117.259521 
	C45.755875,110.289818 50.541286,103.601257 55.590874,97.183144 
	C60.058758,91.504387 64.949471,86.094795 70.128563,81.054504 
	C77.260811,74.113411 84.857918,67.651169 92.210274,60.933853 
	C93.429382,59.820038 94.225204,58.183819 95.542107,57.246067 
	C102.334267,52.409412 109.177452,47.639198 116.114029,43.012497 
	C120.351990,40.185764 124.572205,37.166916 129.192841,35.120453 
	C135.243881,32.440472 140.337296,28.158159 146.860809,26.124876 
	C153.605103,24.022787 159.678665,19.862085 166.260254,17.116404 
	C171.998657,14.722473 177.980377,12.856194 183.955078,11.098327 
	C191.470474,8.887162 199.005875,6.586861 206.686188,5.140257 
	C213.535019,3.850271 220.591125,3.651090 227.559982,3.016678 
	C228.881546,2.896368 230.271637,3.198091 231.533737,2.898731 
	C232.138580,2.755270 232.518311,1.662713 233.000000,0.999999 
	C248.687561,1.000000 264.375122,1.000000 280.531342,1.000001 
z"/>
<path fill="#000000" opacity="1.000000" stroke="none" 
	d="
M232.531342,0.999999 
	C232.518311,1.662713 232.138580,2.755270 231.533737,2.898731 
	C230.271637,3.198091 228.881546,2.896368 227.559982,3.016678 
	C220.591125,3.651090 213.535019,3.850271 206.686188,5.140257 
	C199.005875,6.586861 191.470474,8.887162 183.955078,11.098327 
	C177.980377,12.856194 171.998657,14.722473 166.260254,17.116404 
	C159.678665,19.862085 153.605103,24.022787 146.860809,26.124876 
	C140.337296,28.158159 135.243881,32.440472 129.192841,35.120453 
	C124.572205,37.166916 120.351990,40.185764 116.114029,43.012497 
	C109.177452,47.639198 102.334267,52.409412 95.542107,57.246067 
	C94.225204,58.183819 93.429382,59.820038 92.210274,60.933853 
	C84.857918,67.651169 77.260811,74.113411 70.128563,81.054504 
	C64.949471,86.094795 60.058758,91.504387 55.590874,97.183144 
	C50.541286,103.601257 45.755875,110.289818 41.510159,117.259521 
	C37.553352,123.754944 34.500717,130.797272 30.967979,137.555969 
	C27.200624,144.763504 23.234360,151.868973 19.573740,159.129318 
	C18.366722,161.523270 17.877090,164.273102 16.996147,166.838486 
	C15.075534,172.431473 12.984783,177.969986 11.219908,183.610962 
	C10.218244,186.812515 9.850351,190.207138 8.967567,193.452408 
	C7.879120,197.453720 6.541533,201.386948 5.338927,205.357864 
	C5.151926,205.975327 5.063653,206.632812 5.008556,207.278534 
	C4.329002,215.242401 3.685682,223.209488 2.954183,231.168518 
	C2.896097,231.800522 2.253358,232.378799 1.441162,232.991028 
	C1.000000,155.739624 1.000000,78.479240 1.000000,1.000000 
	C78.020760,1.000000 155.041718,1.000000 232.531342,0.999999 
z"/>
<path fill="#000000" opacity="1.000000" stroke="none" 
	d="
M0.999999,283.468658 
	C1.666652,284.147522 2.782600,285.241882 2.925776,286.451385 
	C3.748138,293.398346 3.811190,300.477264 5.163701,307.307068 
	C6.427854,313.690735 9.150006,319.771698 10.909635,326.075409 
	C12.501161,331.776886 13.344765,337.697327 15.102239,343.339264 
	C16.672869,348.381409 18.901714,353.238495 21.094313,358.061676 
	C23.569521,363.506500 26.273252,368.850372 28.979366,374.186554 
	C31.828196,379.804108 34.410557,385.609955 37.809402,390.882263 
	C42.298534,397.845795 47.935974,404.084564 52.250793,411.141754 
	C61.738174,426.658936 75.324333,438.427795 88.122147,450.826721 
	C94.672569,457.172974 102.958397,461.716827 110.396179,467.162354 
	C115.343414,470.784454 119.969673,474.888214 125.127350,478.166351 
	C129.434555,480.903931 134.297256,482.771423 138.927963,484.995087 
	C144.894241,487.860046 150.820663,490.817017 156.866364,493.504639 
	C161.410416,495.524597 166.114136,497.185699 170.748978,499.000946 
	C175.671219,500.928833 180.551773,502.976318 185.536850,504.725555 
	C188.394974,505.728485 191.391968,506.442078 194.384415,506.931976 
	C199.491211,507.768036 204.667633,508.182556 209.770050,509.040466 
	C214.869522,509.897919 219.914108,511.081970 224.991364,512.561401 
	C150.405334,513.000000 75.810677,513.000000 1.000000,513.000000 
	C1.000000,436.645905 1.000000,360.291626 0.999999,283.468658 
z"/>
<path fill="#000000" opacity="1.000000" stroke="none" 
	d="
M289.468658,513.000000 
	C290.147064,512.333374 291.236969,511.232697 292.450775,511.072845 
	C298.727020,510.246399 305.125336,510.112732 311.308807,508.875946 
	C318.974854,507.342590 326.516235,505.115051 334.028198,502.904449 
	C340.002289,501.146454 345.894989,499.081512 351.737885,496.920502 
	C354.756287,495.804138 357.580414,494.166748 360.505066,492.791962 
	C366.053650,490.183685 371.737854,487.830536 377.131683,484.935364 
	C383.182251,481.687714 389.016388,478.026489 394.864807,474.415802 
	C399.801971,471.367645 404.620331,468.127258 409.507141,464.996704 
	C409.897614,464.746582 410.526978,464.816956 410.851440,464.523773 
	C417.567261,458.455200 424.198547,452.291840 430.974426,446.291565 
	C433.926758,443.677094 437.480743,441.691620 440.206207,438.881866 
	C445.878387,433.034332 451.390717,427.000916 456.567627,420.713623 
	C460.667969,415.733856 464.358643,410.384705 467.891022,404.977325 
	C472.426666,398.034058 476.763275,390.950165 480.917572,383.771729 
	C484.070221,378.324158 486.902313,372.682678 489.690399,367.035339 
	C491.624420,363.117920 493.488251,359.131256 494.942413,355.019562 
	C497.179047,348.695435 498.446503,341.967651 501.213989,335.908508 
	C504.279236,329.197510 505.227051,322.091125 507.163177,315.167480 
	C509.498596,306.816040 511.298615,298.520935 511.137512,289.836029 
	C511.132568,289.569427 511.777435,289.290771 512.559692,289.008850 
	C513.000000,363.593719 513.000000,438.187408 513.000000,513.000000 
	C438.645905,513.000000 364.291626,513.000000 289.468658,513.000000 
z"/>
</svg>